<?xml version="1.0" standalone="no"?>
<!DOCTYPE svg PUBLIC "-//W3C//DTD SVG 20010904//EN"
 "http://www.w3.org/TR/2001/REC-SVG-20010904/DTD/svg10.dtd">
<svg version="1.0" xmlns="http://www.w3.org/2000/svg"
 width="273.000000pt" height="273.000000pt" viewBox="0 0 273.000000 273.000000"
 preserveAspectRatio="xMidYMid meet">
<metadata>
Created by potrace 1.11, written by Peter Selinger 2001-2013
</metadata>
<g transform="translate(0.000000,273.000000) scale(0.100000,-0.100000)"
fill="#000000" stroke="none">
<path d="M1656 2079 l-128 -72 58 -31 c70 -36 202 -164 233 -223 46 -91 16
-185 -95 -303 -79 -83 -150 -140 -269 -215 -82 -51 -242 -127 -298 -141 -26
-6 -28 -4 -25 17 2 19 33 41 150 109 150 86 177 112 143 136 -22 16 -33 11
-165 -65 -115 -67 -145 -73 -145 -28 0 26 13 36 160 120 139 80 160 95 160
117 0 49 -36 36 -258 -92 -116 -67 -223 -123 -237 -123 -20 0 -26 6 -28 26 -3
25 12 35 220 154 123 71 231 135 241 144 24 20 18 55 -9 59 -13 2 -93 -39
-204 -103 -181 -106 -221 -120 -228 -82 -6 28 11 42 147 119 170 96 183 106
179 132 -5 36 -41 30 -134 -24 -92 -52 -110 -56 -127 -28 -16 24 0 38 119 108
58 33 108 67 111 76 6 17 -14 44 -32 44 -7 0 -80 -38 -161 -85 -82 -47 -153
-84 -158 -82 -16 5 -29 33 -23 50 3 8 39 34 81 58 76 43 90 57 80 83 -12 30
-44 24 -103 -19 -100 -73 -177 -194 -213 -330 -10 -38 -22 -71 -26 -73 -5 -1
-37 -21 -73 -45 -71 -46 -86 -81 -53 -118 22 -24 40 -24 89 1 22 11 40 20 41
20 7 0 23 -105 17 -111 -5 -4 -102 -62 -218 -129 -272 -158 -280 -166 -230
-216 23 -23 26 -24 60 -10 19 8 62 31 95 50 73 43 103 45 126 11 28 -43 8 -64
-132 -145 -71 -40 -139 -82 -152 -93 -42 -38 -17 -103 37 -95 14 2 133 66 264
142 252 146 279 155 303 107 20 -40 -1 -63 -119 -132 -109 -62 -112 -65 -115
-101 -3 -32 1 -40 21 -49 34 -15 40 -12 279 125 l207 118 52 -12 c116 -28 278
-8 389 48 48 24 55 31 55 57 0 26 -4 30 -25 28 -14 -1 -61 -22 -104 -47 -62
-35 -83 -43 -97 -35 -24 12 -24 41 -1 61 9 8 47 32 84 52 76 42 92 58 84 83
-4 15 24 35 152 107 86 49 220 126 297 171 77 45 199 116 270 157 146 84 170
109 142 152 -11 17 -27 26 -43 26 -14 0 -88 -37 -166 -82 -122 -71 -143 -80
-166 -72 -38 13 -52 58 -27 84 11 10 130 82 265 160 135 78 253 149 263 157
34 31 9 93 -39 93 -10 0 -77 -34 -149 -75 -132 -76 -171 -88 -199 -59 -35 34
-17 66 62 111 65 36 92 63 92 88 0 26 -29 55 -55 55 -10 0 -115 -56 -234 -124
-119 -69 -228 -128 -242 -131 -33 -8 -59 16 -59 55 0 24 9 34 60 65 56 34 80
59 80 84 0 17 -38 51 -57 51 -10 0 -76 -32 -147 -71z"/>
</g>
</svg>
